<svg xmlns="http://www.w3.org/2000/svg" version="1.1" xmlns:xlink="http://www.w3.org/1999/xlink" xmlns:svgjs="http://svgjs.dev/svgjs" width="1440" height="3650" preserveAspectRatio="none" viewBox="0 0 1440 3650"><g clip-path="url(&quot;#SvgjsClipPath1114&quot;)" fill="none"><rect width="1440" height="3650" x="0" y="0" fill="rgba(15, 23, 42, 1)"></rect><circle r="240" cx="63.46" cy="201.21" stroke="#365aa3" stroke-opacity="0.25" stroke-width="2"></circle><circle r="240" cx="889.24" cy="1152.15" stroke="#365aa3" stroke-opacity="0.25" stroke-width="2"></circle><circle r="240" cx="2012.92" cy="1853.53" stroke="#365aa3" stroke-opacity="0.25" stroke-width="2"></circle><circle r="157.61" cx="127.82" cy="2621.01" stroke="#365aa3" stroke-opacity="0.25" stroke-width="2"></circle><circle r="398.955" cx="30.62" cy="1455.5" stroke="#365aa3" stroke-opacity="0.25" stroke-width="2"></circle><circle r="296.45" cx="744.43" cy="2827.34" stroke="#365aa3" stroke-opacity="0.25" stroke-width="2"></circle><circle r="264.615" cx="1286.35" cy="3033.46" stroke="#365aa3" stroke-opacity="0.25" stroke-width="2"></circle><circle r="363.305" cx="384.53" cy="2864.66" stroke="#365aa3" stroke-opacity="0.25" stroke-width="2"></circle><circle r="275.955" cx="628.09" cy="652" stroke="#365aa3" stroke-opacity="0.25" stroke-width="2"></circle><circle r="137.95" cx="899.46" cy="736.27" stroke="#365aa3" stroke-opacity="0.25" stroke-width="2"></circle><circle r="401.615" cx="124.98" cy="2876.7" stroke="#365aa3" stroke-opacity="0.25" stroke-width="2"></circle><circle r="317.695" cx="209.37" cy="1185.94" stroke="#365aa3" stroke-opacity="0.25" stroke-width="2"></circle><circle r="158.595" cx="861.67" cy="3480.78" stroke="#365aa3" stroke-opacity="0.25" stroke-width="2"></circle><circle r="471.14" cx="877.5" cy="1658.8" stroke="#365aa3" stroke-opacity="0.25" stroke-width="2"></circle><circle r="354.515" cx="58.51" cy="3108.53" stroke="#365aa3" stroke-opacity="0.25" stroke-width="2"></circle><circle r="315.275" cx="410.41" cy="3168.86" stroke="#365aa3" stroke-opacity="0.25" stroke-width="2"></circle><circle r="324.77" cx="496.58" cy="1587.41" stroke="#365aa3" stroke-opacity="0.25" stroke-width="2"></circle><circle r="403.49" cx="885.55" cy="2689.9" stroke="#365aa3" stroke-opacity="0.25" stroke-width="2"></circle><circle r="299.785" cx="432.39" cy="2089.39" stroke="#365aa3" stroke-opacity="0.25" stroke-width="2"></circle><circle r="261.39" cx="57.85" cy="6.3" stroke="#365aa3" stroke-opacity="0.25" stroke-width="2"></circle><circle r="428.295" cx="348.11" cy="2013.14" stroke="#365aa3" stroke-opacity="0.25" stroke-width="2"></circle><circle r="456.46" cx="926.54" cy="536.66" stroke="#365aa3" stroke-opacity="0.25" stroke-width="2"></circle><circle r="401.445" cx="1009.57" cy="3119.77" stroke="#365aa3" stroke-opacity="0.25" stroke-width="2"></circle><circle r="285.2" cx="679.23" cy="1178.28" stroke="#365aa3" stroke-opacity="0.25" stroke-width="2"></circle><circle r="385.71" cx="685.8" cy="2617.88" stroke="#365aa3" stroke-opacity="0.25" stroke-width="2"></circle><circle r="291.49" cx="1246.08" cy="869.9" stroke="#365aa3" stroke-opacity="0.25" stroke-width="2"></circle><circle r="256.135" cx="158.94" cy="833.66" stroke="#365aa3" stroke-opacity="0.25" stroke-width="2"></circle><circle r="229.28" cx="356.51" cy="93.71" stroke="#365aa3" stroke-opacity="0.25" stroke-width="2"></circle><circle r="323.17" cx="937.67" cy="3119.82" stroke="#365aa3" stroke-opacity="0.25" stroke-width="2"></circle><circle r="427.075" cx="23.54" cy="526.16" stroke="#365aa3" stroke-opacity="0.25" stroke-width="2"></circle><circle r="326.21" cx="1053.91" cy="2224.47" stroke="#365aa3" stroke-opacity="0.25" stroke-width="2"></circle><circle r="286.775" cx="584.69" cy="3422.71" stroke="#365aa3" stroke-opacity="0.25" stroke-width="2"></circle><circle r="346.785" cx="1158.28" cy="751.09" stroke="#365aa3" stroke-opacity="0.25" stroke-width="2"></circle><circle r="318.615" cx="198.67" cy="3260.23" stroke="#365aa3" stroke-opacity="0.25" stroke-width="2"></circle><circle r="339.835" cx="218.56" cy="1852.36" stroke="#365aa3" stroke-opacity="0.25" stroke-width="2"></circle><circle r="127.94" cx="1006.94" cy="3038.93" stroke="#365aa3" stroke-opacity="0.25" stroke-width="2"></circle><circle r="193.875" cx="63" cy="2168.37" stroke="#365aa3" stroke-opacity="0.25" stroke-width="2"></circle><circle r="395.805" cx="1149.82" cy="434.13" stroke="#365aa3" stroke-opacity="0.25" stroke-width="2"></circle><circle r="207.675" cx="1437.11" cy="2709.46" stroke="#365aa3" stroke-opacity="0.25" stroke-width="2"></circle><circle r="420.145" cx="1084.67" cy="664.92" stroke="#365aa3" stroke-opacity="0.25" stroke-width="2"></circle><circle r="334.06" cx="1289.78" cy="994.54" stroke="#365aa3" stroke-opacity="0.25" stroke-width="2"></circle><circle r="261.65" cx="1392.11" cy="3528.97" stroke="#365aa3" stroke-opacity="0.25" stroke-width="2"></circle><circle r="133.29" cx="106.5" cy="215.85" stroke="#365aa3" stroke-opacity="0.25" stroke-width="2"></circle><circle r="208.49" cx="29.05" cy="1327.83" stroke="#365aa3" stroke-opacity="0.25" stroke-width="2"></circle><circle r="465.745" cx="276.09" cy="113.44" stroke="#365aa3" stroke-opacity="0.25" stroke-width="2"></circle><circle r="457.73" cx="1316.94" cy="3042.2" stroke="#365aa3" stroke-opacity="0.25" stroke-width="2"></circle><circle r="401.01" cx="1411.66" cy="2552.49" stroke="#365aa3" stroke-opacity="0.25" stroke-width="2"></circle><circle r="302.735" cx="159.93" cy="1923.97" stroke="#365aa3" stroke-opacity="0.25" stroke-width="2"></circle><circle r="122.905" cx="304.89" cy="1609.52" stroke="#365aa3" stroke-opacity="0.25" stroke-width="2"></circle><circle r="398.155" cx="719.95" cy="3138.23" stroke="#365aa3" stroke-opacity="0.25" stroke-width="2"></circle><circle r="205.32" cx="733.15" cy="1222.79" stroke="#365aa3" stroke-opacity="0.25" stroke-width="2"></circle></g><defs><clipPath id="SvgjsClipPath1114"><rect width="1440" height="3650" x="0" y="0"></rect></clipPath></defs></svg>